<?xml version="1.0" standalone="no"?>
<!DOCTYPE svg PUBLIC "-//W3C//DTD SVG 20010904//EN"
 "http://www.w3.org/TR/2001/REC-SVG-20010904/DTD/svg10.dtd">
<svg version="1.0" xmlns="http://www.w3.org/2000/svg"
 width="384.000000pt" height="417.000000pt" viewBox="0 0 384.000000 417.000000"
 preserveAspectRatio="xMidYMid meet">

<g transform="translate(0.000000,417.000000) scale(0.100000,-0.100000)"
fill="#000000" stroke="none">
<path d="M1780 4137 c-120 -41 -57 9 -1227 -979 -226 -191 -425 -364 -442
-385 -41 -49 -86 -144 -100 -211 -15 -71 -16 -2176 -1 -2253 22 -113 95 -210
201 -266 l54 -28 480 0 480 0 58 30 c78 40 134 97 171 175 l31 65 5 643 5 644
24 19 c22 18 44 19 401 19 357 0 379 -1 401 -19 l24 -19 5 -644 5 -643 31 -65
c37 -78 93 -135 171 -175 l58 -30 480 0 480 0 54 28 c106 56 179 153 201 266
15 77 14 2182 -1 2253 -14 67 -59 162 -100 211 -28 35 -292 260 -1184 1011
-181 153 -352 291 -380 307 -121 71 -264 88 -385 46z m216 -316 c17 -10 278
-228 580 -483 302 -255 630 -532 729 -615 99 -83 187 -162 195 -175 22 -34 28
-2173 6 -2203 -14 -19 -28 -20 -409 -20 -319 0 -397 3 -410 14 -16 12 -17 67
-17 610 0 339 -4 622 -10 655 -24 147 -121 258 -265 303 -57 18 -893 18 -950
0 -144 -45 -241 -156 -265 -303 -6 -33 -10 -316 -10 -655 0 -543 -1 -598 -17
-610 -13 -11 -91 -14 -410 -14 -381 0 -395 1 -409 20 -22 30 -16 2169 6 2203
8 13 96 92 195 175 99 83 427 360 729 615 302 255 563 473 580 483 18 11 49
19 76 19 27 0 58 -8 76 -19z"/>
</g>
</svg>
