<?xml version="1.0" standalone="no"?>
<!DOCTYPE svg PUBLIC "-//W3C//DTD SVG 20010904//EN"
 "http://www.w3.org/TR/2001/REC-SVG-20010904/DTD/svg10.dtd">
<svg version="1.0" xmlns="http://www.w3.org/2000/svg"
 width="428.000000pt" height="407.000000pt" viewBox="0 0 428.000000 407.000000"
 preserveAspectRatio="xMidYMid meet">

<g transform="translate(0.000000,407.000000) scale(0.100000,-0.100000)"
fill="#000000" stroke="none">
<path d="M565 4055 c-261 -58 -451 -233 -531 -490 -18 -57 -19 -112 -19 -1095
0 -983 1 -1038 19 -1095 72 -232 234 -398 461 -472 66 -21 105 -27 223 -31
l142 -5 0 -306 c0 -346 5 -378 66 -449 20 -24 55 -52 77 -64 59 -29 155 -35
214 -13 25 10 153 98 284 196 216 162 239 182 248 216 5 21 29 112 52 203 23
91 52 189 65 219 13 29 18 49 11 44 -6 -6 -166 -126 -354 -267 l-343 -256 0
400 0 400 -255 0 c-263 0 -330 7 -399 42 -58 29 -134 111 -164 176 l-27 57 0
1005 0 1005 22 48 c32 70 79 125 138 162 108 69 -1 65 1645 65 1651 0 1540 5
1647 -67 65 -43 99 -82 132 -153 l26 -55 5 -459 5 -458 60 -22 c89 -32 148
-64 202 -109 l48 -39 3 523 c2 349 -1 546 -8 589 -42 247 -223 452 -475 538
l-80 27 -1540 2 c-1251 1 -1551 -1 -1600 -12z"/>
<path d="M3663 2345 c-126 -34 -118 -27 -854 -763 -599 -601 -700 -706 -728
-760 -22 -41 -52 -140 -92 -297 -60 -239 -66 -283 -49 -345 23 -82 127 -160
212 -160 61 0 507 114 565 144 26 14 60 33 74 43 36 24 1325 1306 1370 1363
222 275 86 686 -258 775 -71 18 -171 18 -240 0z"/>
</g>
</svg>
