<svg version="1.2" xmlns="http://www.w3.org/2000/svg" viewBox="0 0 512 448" width="512" height="448"><style>.a{fill:#fff}</style><path class="a" d="m0 352v-256c0-53 43-96 96-96h64c17.7 0 32 14.3 32 32 0 17.7-14.3 32-32 32h-64c-17.7 0-32 14.3-32 32v256c0 17.7 14.3 32 32 32h64c17.7 0 32 14.3 32 32 0 17.7-14.3 32-32 32h-64c-53 0-96-43-96-96zm504.8-111.5l-144.1 136c-7 6.6-17.2 8.4-26 4.6-8.8-3.8-14.5-12.5-14.5-22l-0.1-71.1h-128c-17.7 0-32-14.4-32-32v-64c0-17.7 14.3-32 32-32h128l0.1-72c0-9.6 5.7-18.3 14.5-22.1 8.8-3.8 19-2 26 4.6l144.1 136c9.6 9.1 9.6 25.9 0 34z"/></svg>