<?xml version="1.0" standalone="no"?>
<!DOCTYPE svg PUBLIC "-//W3C//DTD SVG 20010904//EN"
 "http://www.w3.org/TR/2001/REC-SVG-20010904/DTD/svg10.dtd">
<svg version="1.0" xmlns="http://www.w3.org/2000/svg"
 width="384.000000pt" height="384.000000pt" viewBox="0 0 384.000000 384.000000"
 preserveAspectRatio="xMidYMid meet">

<g transform="translate(0.000000,384.000000) scale(0.100000,-0.100000)"
fill="#000000" stroke="none">
<path d="M554 3825 c-251 -55 -449 -237 -526 -485 l-23 -75 0 -1350 0 -1350
27 -78 c74 -218 237 -381 455 -455 l78 -27 840 0 c797 0 843 1 895 19 30 10
73 28 95 38 49 25 1335 1303 1371 1364 13 22 34 67 46 100 l23 59 0 845 0 845
-27 78 c-74 218 -237 381 -455 455 l-78 27 -1330 2 c-1082 1 -1341 -1 -1391
-12z m2689 -320 c90 -23 171 -84 224 -168 52 -83 53 -92 53 -889 l0 -738 -352
0 c-194 0 -384 -5 -423 -10 -210 -30 -385 -139 -496 -310 l-51 -78 -67 -14
c-40 -8 -129 -13 -226 -12 -140 0 -172 4 -259 27 -113 30 -203 70 -294 129
-102 67 -196 61 -253 -16 -33 -42 -34 -141 -3 -183 28 -38 99 -85 219 -143
218 -106 356 -135 628 -135 l187 1 0 -323 0 -324 -762 3 -763 3 -61 28 c-77
36 -154 113 -191 192 l-28 60 -3 1289 c-3 1399 -4 1356 51 1443 52 82 134 145
220 168 80 21 2567 22 2650 0z m-368 -2535 l-420 -420 -3 237 c-1 143 2 259 8
290 25 117 95 213 195 266 72 37 138 45 395 46 l245 1 -420 -420z"/>
<path d="M1221 2818 c-160 -36 -248 -213 -181 -366 42 -96 133 -155 240 -155
152 0 258 99 268 251 5 71 -6 106 -55 174 -57 78 -171 119 -272 96z"/>
<path d="M2503 2816 c-111 -27 -203 -143 -203 -256 0 -90 71 -199 156 -240 87
-43 210 -25 289 42 67 57 106 202 74 281 -53 134 -182 205 -316 173z"/>
</g>
</svg>
